<?xml version="1.0" encoding="UTF-8"?>
<!DOCTYPE svg PUBLIC "-//W3C//DTD SVG 1.1//EN" "http://www.w3.org/Graphics/SVG/1.1/DTD/svg11.dtd">
<!-- Creator: CorelDRAW 2020 (64-Bit) -->
<svg xmlns="http://www.w3.org/2000/svg" xml:space="preserve" width="210mm" height="297mm" version="1.1" style="shape-rendering:geometricPrecision; text-rendering:geometricPrecision; image-rendering:optimizeQuality; fill-rule:evenodd; clip-rule:evenodd"
viewBox="0 0 21000 29700"
 xmlns:xlink="http://www.w3.org/1999/xlink"
 xmlns:xodm="http://www.corel.com/coreldraw/odm/2003">
 <defs>
  <style type="text/css">
   <![CDATA[
    .str0 {stroke:#1F1B20;stroke-width:20;stroke-linecap:round;stroke-linejoin:round;stroke-miterlimit:22.9256}
    .fil1 {fill:none}
    .fil7 {fill:#060606}
    .fil3 {fill:#609DCC}
    .fil2 {fill:#B8CAD6}
    .fil6 {fill:#B99FCC}
    .fil0 {fill:white}
    .fil5 {fill:black;fill-rule:nonzero}
    .fil4 {fill:#2B2A29;fill-rule:nonzero}
   ]]>
  </style>
 </defs>
 <rect class="fil0" x="-7.13" y="0.53" width="21000" height="29700"/>
 <g id="Слой_x0020_1">
  <metadata id="CorelCorpID_0Corel-Layer"/>
  <g id="Лесница_x0020_">
   <polygon class="fil1 str0" points="7506.21,14042.37 7687.38,14042.37 7687.38,14566.4 7506.21,14566.4 "/>
   <polygon class="fil1 str0" points="8140.91,14042.37 8322.07,14042.37 8322.07,14566.4 8140.91,14566.4 "/>
   <polygon class="fil1 str0" points="7703.51,14087.43 8125.41,14087.43 8125.41,14606.38 7703.51,14606.38 "/>
   <line class="fil1 str0" x1="7506.21" y1="14088.69" x2="7687.38" y2= "14088.69" />
   <line class="fil1 str0" x1="8140.91" y1="14088.69" x2="8322.07" y2= "14088.69" />
   <line class="fil1 str0" x1="7506.21" y1="14134.36" x2="7687.38" y2= "14134.36" />
   <line class="fil1 str0" x1="8140.91" y1="14134.36" x2="8322.07" y2= "14134.36" />
   <line class="fil1 str0" x1="7506.21" y1="14177.51" x2="7687.38" y2= "14177.51" />
   <line class="fil1 str0" x1="8140.91" y1="14177.51" x2="8322.07" y2= "14177.51" />
   <line class="fil1 str0" x1="7506.21" y1="14219.37" x2="7687.38" y2= "14219.37" />
   <line class="fil1 str0" x1="8140.91" y1="14219.37" x2="8322.07" y2= "14219.37" />
   <line class="fil1 str0" x1="7506.21" y1="14262.52" x2="7687.38" y2= "14262.52" />
   <line class="fil1 str0" x1="8140.91" y1="14262.52" x2="8322.07" y2= "14262.52" />
   <line class="fil1 str0" x1="7506.21" y1="14304.39" x2="7687.38" y2= "14304.39" />
   <line class="fil1 str0" x1="8140.91" y1="14304.39" x2="8322.07" y2= "14304.39" />
   <line class="fil1 str0" x1="7506.21" y1="14345" x2="7687.38" y2= "14345" />
   <line class="fil1 str0" x1="8140.91" y1="14345" x2="8322.07" y2= "14345" />
   <line class="fil1 str0" x1="7506.21" y1="14389.4" x2="7687.38" y2= "14389.4" />
   <line class="fil1 str0" x1="8140.91" y1="14389.4" x2="8322.07" y2= "14389.4" />
   <line class="fil1 str0" x1="7506.21" y1="14435.08" x2="7687.38" y2= "14435.08" />
   <line class="fil1 str0" x1="8140.91" y1="14435.08" x2="8322.07" y2= "14435.08" />
   <line class="fil1 str0" x1="7506.21" y1="14476.95" x2="7687.38" y2= "14476.95" />
   <line class="fil1 str0" x1="8140.91" y1="14476.95" x2="8322.07" y2= "14476.95" />
   <line class="fil1 str0" x1="7506.21" y1="14520.1" x2="7687.38" y2= "14520.1" />
   <line class="fil1 str0" x1="8140.91" y1="14520.1" x2="8322.07" y2= "14520.1" />
   <line class="fil1 str0" x1="7703.51" y1="14129.91" x2="8125.41" y2= "14129.91" />
   <line class="fil1 str0" x1="7703.51" y1="14177.48" x2="8125.41" y2= "14177.48" />
   <line class="fil1 str0" x1="7703.51" y1="14219.37" x2="8125.41" y2= "14219.37" />
   <line class="fil1 str0" x1="7703.51" y1="14264.41" x2="8125.41" y2= "14264.41" />
   <line class="fil1 str0" x1="7703.51" y1="14303.1" x2="8125.41" y2= "14303.1" />
   <line class="fil1 str0" x1="7703.51" y1="14346.9" x2="8125.41" y2= "14346.9" />
   <line class="fil1 str0" x1="7703.51" y1="14391.3" x2="8125.41" y2= "14391.3" />
   <line class="fil1 str0" x1="7703.51" y1="14433.15" x2="8125.41" y2= "14433.15" />
   <line class="fil1 str0" x1="7703.51" y1="14478.2" x2="8125.41" y2= "14478.2" />
   <line class="fil1 str0" x1="7703.51" y1="14565.75" x2="8125.41" y2= "14565.75" />
   <line class="fil1 str0" x1="7703.51" y1="14521.35" x2="8125.41" y2= "14521.35" />
  </g>
  <g id="Лесница_x0020__0">
   <polygon class="fil1 str0" points="16859.26,14403.12 17046.17,14403.12 17046.17,14846.05 16859.26,14846.05 "/>
   <line class="fil1 str0" x1="16859.26" y1="14450.62" x2="17046.17" y2= "14450.62" />
   <line class="fil1 str0" x1="16859.26" y1="14494.92" x2="17046.17" y2= "14494.92" />
   <line class="fil1 str0" x1="16859.26" y1="14539.21" x2="17046.17" y2= "14539.21" />
   <line class="fil1 str0" x1="16859.26" y1="14582.22" x2="17046.17" y2= "14582.22" />
   <line class="fil1 str0" x1="16859.26" y1="14628.43" x2="17046.17" y2= "14628.43" />
   <line class="fil1 str0" x1="16859.26" y1="14671.44" x2="17046.17" y2= "14671.44" />
   <line class="fil1 str0" x1="16859.26" y1="14713.18" x2="17046.17" y2= "14713.18" />
   <line class="fil1 str0" x1="16859.26" y1="14756.17" x2="17046.17" y2= "14756.17" />
   <line class="fil1 str0" x1="16859.26" y1="14801.75" x2="17046.17" y2= "14801.75" />
   <polygon class="fil1 str0" points="17094.74,14451.89 17281.65,14451.89 17281.65,14894.84 17094.74,14894.84 "/>
   <line class="fil1 str0" x1="17094.74" y1="14499.39" x2="17281.65" y2= "14499.39" />
   <line class="fil1 str0" x1="17094.74" y1="14543.69" x2="17281.65" y2= "14543.69" />
   <line class="fil1 str0" x1="17094.74" y1="14587.99" x2="17281.65" y2= "14587.99" />
   <line class="fil1 str0" x1="17094.74" y1="14630.99" x2="17281.65" y2= "14630.99" />
   <line class="fil1 str0" x1="17094.74" y1="14677.22" x2="17281.65" y2= "14677.22" />
   <line class="fil1 str0" x1="17094.74" y1="14720.22" x2="17281.65" y2= "14720.22" />
   <line class="fil1 str0" x1="17094.74" y1="14761.95" x2="17281.65" y2= "14761.95" />
   <line class="fil1 str0" x1="17094.74" y1="14804.96" x2="17281.65" y2= "14804.96" />
   <line class="fil1 str0" x1="17094.74" y1="14850.54" x2="17281.65" y2= "14850.54" />
  </g>
  <g id="_2612842515648">
   <g>
    <g>
     <path class="fil2" d="M9364.39 14378.33l0 280.39c-156.93,0 -284.14,-125.53 -284.14,-280.39 0,-154.87 127.21,-280.41 284.14,-280.41l0 280.41z"/>
     <path class="fil3" d="M9356.65 14345.97c7.44,-40.27 -15.04,-57.84 -50.61,-62.59 -22.98,-3.07 -94.55,-1.86 -116.84,2.42 -27.92,5.37 -49.56,35.05 -43.64,69.17 3.64,21.02 24.03,62.42 32.65,82.13 21.12,48.34 58.51,153.63 110.33,76.5 22.54,-33.54 59.56,-121.34 68.11,-167.63z"/>
    </g>
    <g>
     <path class="fil4" d="M9208.06 14673.21m115.62 -95.25l-9.39 7.16c-5.1,-6.67 -11.2,-11.71 -18.44,-15.12 -7.25,-3.41 -15.15,-5.04 -23.72,-5.04 -9.39,0 -18.11,2.27 -26.18,6.67 -8.07,4.55 -14.33,10.56 -18.78,18.04 -4.28,7.47 -6.59,16.09 -6.59,25.52 0,14.14 4.94,26 14.82,35.59 9.88,9.59 22.4,14.3 37.39,14.3 16.63,0 30.47,-6.34 41.5,-19.18l9.39 6.99c-5.93,7.32 -13.18,13.17 -22.07,17.23 -8.73,4.06 -18.61,6.01 -29.48,6.01 -20.75,0 -37.06,-6.82 -49.08,-20.47 -9.88,-11.38 -14.99,-25.2 -14.99,-41.45 0,-17.07 6.1,-31.54 18.29,-43.07 12.02,-11.71 27.34,-17.56 45.61,-17.56 11.04,0 20.92,2.12 29.82,6.34 8.89,4.39 16.3,10.4 21.9,18.04z"/>
     <polygon class="fil4" points="9190.88,14672.85 9177.66,14672.85 9150.89,14587.45 9113.25,14672.85 9111.09,14672.85 9074.17,14587.45 9047.4,14672.85 9034.18,14672.85 9071.46,14554.25 9073.63,14554.25 9112.17,14643.95 9151.79,14554.25 9153.79,14554.25 "/>
    </g>
   </g>
   <path class="fil3" d="M9295.16 14231.61c30.61,-69.66 -72.72,-97.39 -95.56,-34.38 -24.53,67.7 65.77,102.18 95.56,34.38z"/>
  </g>
  <g id="Туалет_x0020_д">
   <path class="fil2" d="M8410.98 14370.44l0 273.25c152.92,0 276.89,-122.34 276.89,-273.25 0,-150.92 -123.97,-273.26 -276.89,-273.26l0 273.26z"/>
   <path class="fil5" d="M8453.6 14654.37m0 -113.72l11.72 0 23.75 81.89 33.38 -81.89 1.93 0 32.74 81.89 23.75 -81.89 11.72 0 -33.06 113.72 -1.93 0 -34.19 -86 -35.14 86 -1.77 0 -32.9 -113.72zm155.2 113.72m112.67 -92.82l-9.15 6.97c-4.97,-6.49 -10.91,-11.4 -17.97,-14.72 -7.06,-3.33 -14.77,-4.92 -23.12,-4.92 -9.14,0 -17.65,2.22 -25.51,6.5 -7.87,4.43 -13.97,10.29 -18.3,17.58 -4.17,7.28 -6.42,15.68 -6.42,24.87 0,13.78 4.81,25.34 14.44,34.68 9.63,9.35 21.83,13.94 36.44,13.94 16.21,0 29.69,-6.17 40.44,-18.69l9.15 6.82c-5.77,7.12 -12.84,12.83 -21.5,16.78 -8.51,3.96 -18.14,5.86 -28.74,5.86 -20.22,0 -36.11,-6.65 -47.82,-19.95 -9.63,-11.09 -14.61,-24.55 -14.61,-40.4 0,-16.63 5.94,-30.72 17.82,-41.97 11.71,-11.4 26.64,-17.1 44.45,-17.1 10.76,0 20.39,2.06 29.06,6.17 8.66,4.28 15.88,10.14 21.34,17.58z"/>
   <path class="fil6" d="M8422.96 14472.85c4.67,35.22 26.97,49.28 65.61,50.7 147.69,5.46 175.24,2.16 105.72,-162.74 -23.38,-55.48 -60.45,-135.25 -107.81,-51.45 -14.02,24.81 -67.1,136.46 -63.52,163.49z"/>
   <path class="fil6" d="M8519.41 14152.49c-67.09,15.72 -49.92,114.18 18.43,99.82 56.26,-11.81 57.42,-117.58 -18.43,-99.82z"/>
  </g>
  <g id="_2612842515264">
   <g id="_2601664024336">
    <path class="fil7" d="M7415.32 14040.26l-3815.62 0 0 2608.89 3943.09 0 -0.43 -59.05 -59.52 0.01 0.09 -969.64 144.31 0 0.53 -59.06 -365.42 0 0.44 59.06 160.92 0 0 969.64 -474.72 0 -0.95 -969.64 160.82 0 0.53 -59.06 -288.93 0 0.42 59.06 67.43 0 0.02 969.64 -357.34 0 0.16 -969.64 144.31 0 0.53 -59.06 -314.42 0 0.43 59.06 110.04 0 -0.11 969.64 -883.69 0 -0.37 -969.64 153.34 0 0 -59.06 -399.41 0 0.44 59.06 185.98 0 0.42 969.64 -1869.82 0 0 -910.61 -0.5 0 0 -163.17 -0.01 0 0 -396.75 17.88 0 0 -0.06 1419.16 0 0 178.46 59.49 0 0 -178.46 161.47 0 -0.43 -59.06 -569.31 -0.54 0 -75.89 -59.25 -0.48 0.02 76.91 -1028.52 0 0 -961.14 1028.63 0 -0.11 739.76 59.23 -0.39 0 -739.37 788.56 0 2.02 961.14 -75.84 0 -0.54 59.06 671.35 0 -0.43 -59.06 -533.88 0 -1.45 -961.14 833.19 0 -0.11 961.14 -92.83 0 -0.54 59.06 696.84 0 -0.43 -59.06 -544.5 0 0.68 -961.14 925.59 0 0.96 961.14 -178.35 0 0 59.06 356.92 0 -0.43 -59.06 -118.81 0 -0.1 -1377.55 875.66 0 -0.02 1377.55 -126.92 0 -0.53 59.06 246.45 0 0 -67.99 -59.49 0 0 -951.78 416.29 -0.45 0 553.25 -169.31 -0.02 -0.54 399 -59.48 0 0 67.99 169.96 0 -0.55 -59.06 -50.82 0 0.01 -340.78 247.08 0 -0.38 340.78c-43.27,0.92 -33.88,-16.23 -33.88,59.06l152.97 0 -0.43 -59.06 -59.42 0 0.36 -408.45 -136.35 0.36 0 -552.51 477.33 -0.54 -1.2 961.14 -169.55 0 -0.28 59.06 280.44 0 -0.54 -59.06 -50.84 0 0.02 -961.14 1768.5 0 -0.65 961.14 -373.8 -0.51 0 59.57 475.89 0 -0.54 -59.06 -42.33 0 0 -961.14 1504.47 0 -0.05 714.27 68.21 0 0 -714.27 552.26 0 -0.12 961.14 -552.52 0 0.38 -85.42 -68.21 0c0,140.13 -16.88,46.45 -16.88,144.48l849.79 0 -0.43 -59.06 -143.9 0 -0.02 -961.14 484.28 0 -0.11 961.14 -135.26 0 -0.6 59.06 203.95 0c0,-63.83 -8.87,-59.02 -8.87,-76.48l0 -943.72 315.33 0 -0.64 603.79 76.71 0 0 -603.79 883.68 0 -0.12 960.6 -195.34 0.11 0 59.49 1172.73 0 0 -59.6 -910.35 0 1.17 -960.6 1453.06 0 -0.12 961.14 -365.3 -0.42 0 59.48 365.42 0 0 178.46 59.11 -0.39 0 -1427.72 875.14 0 0.53 -59.05 -934.78 0 0 229.44 -8370.56 0 0 -416.39 -994.27 0 0 416.39zm-3224.65 1580.17l1014.62 -0.08 0.54 -58.94 -50.99 0 0 -110.47 -59.49 0 0 110.47 -904.68 0 0 59.02z"/>
    <polygon class="fil7" points="17298.91,15655.32 16839.24,15655.32 16839.26,15502.41 16780.15,15501.82 16780.15,15561.41 16100.3,15561.41 16100.62,15620.47 16771.91,15620.47 16772.02,16581.61 15445.95,16581.61 15445.58,15620.47 15921.32,15620.47 15921.96,15561.41 15097.54,15561.41 15097.85,15620.47 15386.47,15620.47 15386.35,16581.61 14111.77,16581.61 14111.39,15620.47 14179.29,15620.47 14179.86,15561.41 13635.87,15561.41 13636.19,15620.47 14052.54,15620.47 14052.17,16590.11 12581.06,16590.11 12581.75,15620.47 13473.88,15620.47 13474.53,15561.41 11485.87,15561.41 11486.19,15620.36 12522.63,15621.08 12522.52,16590.11 11239.43,16590.11 11239.05,15620.47 11298.37,15620.47 11299.03,15561.41 10559.59,15561.41 10559.91,15620.47 11171.98,15620.47 11171.83,16581.61 10279.27,16581.61 10279.27,15620.47 10372.13,15620.47 10372.75,15561.41 8910.97,15561.41 8911.29,15620.47 10211.17,15620.47 10211.06,16581.61 8239.63,16581.61 8239.25,15620.47 8731.98,15620.47 8732.63,15561.41 7738.24,15561.41 7738.56,15620.47 7848.61,15620.47 7848.61,15739.87 7907.84,15739.59 7907.84,15620.47 8181.21,15620.47 8180.03,16581.61 7907.68,16581.61 7907.84,15850.83 7848.61,15850.25 7848.61,16590.11 7747.27,16590.11 7746.63,16649.15 16839.63,16649.15 16839.63,15714.37 17358.01,15714.37 17358.01,14286.7 17714.93,14286.7 17714.62,14227.66 17299.32,14227.66 "/>
    <polygon class="fil7" points="9599.2,15119.52 10670.06,15119.52 10669.75,15060.46 9599.85,15060.47 "/>
    <polygon class="fil7" points="14298.61,14958.05 14298.73,15060.03 14154.25,15060.03 14154.25,15119.52 14936.07,15119.52 14936.07,15059.92 14375.47,15059.92 14375.32,14873.07 14298.61,14873.07 "/>
    <polygon class="fil7" points="11485.76,15119.52 12497.14,15119.52 12497.14,15059.92 11486.42,15060.6 "/>
    <polygon class="fil7" points="14341.22,15586.9 14341.65,15620.47 14927.05,15620.47 14927.68,15586.9 14927.58,15561.41 14341.22,15561.41 "/>
    <polygon class="fil7" points="5885.67,15586.9 5886.1,15620.47 6225.6,15620.47 6225.71,15586.9 6225.6,15561.41 5885.67,15561.41 "/>
   </g>
   <polygon class="fil7" points="4189.77,16626.57 4256.77,16626.57 4256.77,15561.41 4190.67,15561.41 4190.67,15676.19 4189.77,15676.2 "/>
  </g>
 </g>
</svg>
